<svg width="2400" height="2400" viewBox="0 0 2400 2400" fill="none" xmlns="http://www.w3.org/2000/svg">
<g filter="url(#filter0_ddd_77_954)">
<path d="M450 1758.72H478.379V1835.5H499.518V1758.72H527.897V1740.61H450V1758.72Z" fill="#047B44"/>
<path d="M649.367 1740.61L616.5 1835.5H639.521L645.892 1816.08H680.352L686.433 1835.5H710.034L677.022 1740.61H649.222H649.367ZM651.249 1799.14L653.711 1791.46C655.738 1784.94 657.765 1778.27 659.792 1771.61C660.95 1767.84 662.109 1763.79 663.267 1759.59C664.425 1763.79 665.583 1767.84 666.597 1771.61C668.624 1778.42 670.506 1784.94 672.533 1791.46L674.995 1799.14H651.249Z" fill="#047B44"/>
<path d="M889.716 1740.61H866.405L856.415 1755.82C855.112 1757.85 853.664 1760.02 852.361 1762.05C851.058 1764.07 849.755 1766.25 848.451 1768.28C848.162 1768.86 847.872 1769.29 847.438 1769.87C847.148 1769.29 846.859 1768.86 846.569 1768.28C845.266 1766.25 844.108 1764.07 842.66 1761.9C841.212 1759.73 840.054 1757.7 838.751 1755.53L828.905 1740.32H804.87L835.71 1786.67L801.685 1835.21H825.72L838.751 1816.08C839.909 1814.34 841.067 1812.61 842.225 1810.87C843.384 1809.13 844.542 1807.39 845.556 1805.8C846.135 1804.93 846.714 1803.91 847.293 1803.04C847.872 1803.91 848.451 1804.78 849.031 1805.8C850.044 1807.54 851.202 1809.13 852.361 1810.87C853.519 1812.61 854.533 1814.34 855.691 1816.08L868.288 1835.21H892.902L859.455 1786.09L889.861 1740.32L889.716 1740.61Z" fill="#047B44"/>
<path d="M1059.7 1788.7C1062.74 1784.06 1064.19 1778.56 1064.19 1772.19C1064.19 1765.81 1062.74 1760.16 1059.99 1755.38C1057.1 1750.6 1053.04 1746.98 1047.83 1744.37C1042.62 1741.76 1036.25 1740.46 1029.15 1740.46H990.639V1835.35H1011.92V1803.04H1027.99L1044.21 1835.35H1066.8L1048.12 1798.7C1053.19 1796.23 1057.1 1792.9 1059.99 1788.41L1059.7 1788.7ZM1011.78 1758.13H1027.56C1030.89 1758.13 1033.64 1758.71 1036.1 1759.87C1038.56 1761.03 1040.3 1762.62 1041.6 1764.65C1042.91 1766.68 1043.49 1769.14 1043.49 1772.04C1043.49 1774.94 1042.91 1777.4 1041.6 1779.43C1040.3 1781.6 1038.42 1783.2 1036.1 1784.35C1033.79 1785.51 1030.89 1786.09 1027.7 1786.09H1011.92V1757.99L1011.78 1758.13Z" fill="#047B44"/>
<path d="M1166.14 1835.5H1235.49V1817.39H1187.42V1796.53H1231.87V1778.85H1187.42V1758.72H1235.49V1740.61H1166.14V1835.5Z" fill="#047B44"/>
<path d="M1357.97 1740.61H1336.68V1835.5H1400.54V1817.39H1357.97V1740.61Z" fill="#047B44"/>
<path d="M1521.72 1740.61H1500.44V1835.5H1521.72V1740.61Z" fill="#047B44"/>
<path d="M1625.4 1835.5H1694.76V1817.39H1646.69V1796.53H1691.14V1778.85H1646.69V1758.72H1694.76V1740.61H1625.4V1835.5Z" fill="#047B44"/>
<path d="M1795.96 1835.5H1817.24V1797.98H1860.24V1780.59H1817.24V1758.72H1863.14V1740.61H1795.96V1835.5Z" fill="#047B44"/>
<path d="M1524.48 565L1218.39 871.107L1369.55 1022.35C1371.58 1016.55 1524.48 565 1524.48 565Z" fill="#FE5000"/>
<path d="M923.171 691.328L1266.32 1034.67L1244.02 1050.31L935.044 741.163C945.903 773.179 957.197 806.643 968.201 838.949C972.689 852.132 980.074 864.011 989.919 873.862L1198.27 1082.33L1175.97 1097.97L994.553 916.453C1006.43 951.511 1016.71 981.933 1024.09 1003.52C1030.89 1023.8 1042.33 1042.2 1057.39 1057.26L1063.33 1063.2C1104.59 1104.49 1119.51 1165.19 1102.28 1220.97L1072.88 1315.27L1257.78 1147.66C1283.12 1125.79 1321.05 1127.09 1344.65 1150.7L1383.02 1189.09C1383.02 1189.09 1383.02 1189.09 1383.02 1189.24C1409.95 1148.68 1404.6 1094.79 1370.14 1060.45L1354.35 1044.66L1317.58 1007.86L1311.79 1002.07L875.681 565.728C880.893 581.228 894.648 621.936 912.168 673.364C914.484 680.028 918.249 686.258 923.316 691.183L923.171 691.328Z" fill="#FE5000"/>
<path d="M632.434 1538.66C639.963 1526.2 643.728 1511.42 643.728 1494.62C643.728 1477.81 639.963 1462.89 632.434 1450.43C624.905 1437.98 614.191 1428.41 600.436 1421.61C586.681 1414.8 570.175 1411.46 551.208 1411.46H450V1649.63H516.458V1577.77H551.063C570.03 1577.77 586.391 1574.44 600.291 1567.63C614.191 1560.82 624.76 1551.26 632.289 1538.8L632.434 1538.66ZM574.808 1509.54C572.202 1513.74 568.437 1517.07 563.515 1519.39C558.737 1521.71 552.945 1522.87 546.14 1522.87H516.458V1465.94H546.14C552.8 1465.94 558.592 1467.09 563.515 1469.41C568.293 1471.73 572.057 1475.06 574.808 1479.26C577.414 1483.46 578.862 1488.53 578.862 1494.33C578.862 1500.12 577.559 1505.05 574.808 1509.4V1509.54Z" fill="#FE5000"/>
<path d="M790.543 1649.49H859.752L816.026 1560.54C826.161 1554.45 834.414 1546.77 840.64 1537.36C848.459 1525.33 852.368 1510.99 852.368 1494.48C852.368 1477.96 848.604 1462.75 841.075 1450.29C833.546 1437.83 822.831 1428.27 809.076 1421.46C795.321 1414.65 778.815 1411.32 759.848 1411.32H658.785V1649.49H725.243V1575.02H754.925L790.543 1649.49ZM725.243 1465.5H754.925C761.585 1465.5 767.377 1466.66 772.3 1469.12C777.078 1471.59 780.842 1474.92 783.593 1479.27C786.2 1483.61 787.647 1488.68 787.647 1494.48C787.647 1500.27 786.344 1505.34 783.593 1509.69C780.842 1514.03 777.223 1517.51 772.3 1519.97C767.522 1522.44 761.73 1523.59 754.925 1523.59H725.243V1465.36V1465.5Z" fill="#FE5000"/>
<path d="M939.679 1411.46H873.221V1649.63H939.679V1411.46Z" fill="#FE5000"/>
<path d="M1186.83 1530.69C1186.83 1504.18 1181.76 1481.72 1171.48 1463.47C1161.2 1445.22 1147.3 1431.31 1129.93 1421.89C1112.41 1412.48 1092.86 1407.7 1071.29 1407.7C1049.71 1407.7 1030.17 1412.48 1012.65 1421.89C995.128 1431.31 981.228 1445.22 971.093 1463.47C960.813 1481.87 955.745 1504.18 955.745 1530.69C955.745 1557.2 960.813 1579.37 971.093 1597.62C981.373 1615.87 995.128 1629.78 1012.65 1639.2C1030.17 1648.61 1049.71 1653.39 1071.29 1653.39C1092.86 1653.39 1112.41 1648.61 1129.93 1639.2C1147.45 1629.78 1161.2 1615.87 1171.48 1597.62C1181.76 1579.37 1186.83 1557.06 1186.83 1530.55V1530.69ZM1114.14 1565.75C1110.38 1575.45 1104.88 1582.99 1097.64 1588.06C1090.4 1593.27 1081.57 1595.88 1071.14 1595.88C1060.72 1595.88 1052.03 1593.27 1044.79 1588.06C1037.55 1582.84 1032.05 1575.45 1028.28 1565.75C1024.52 1556.04 1022.64 1544.31 1022.64 1530.69C1022.64 1517.07 1024.52 1505.19 1028.28 1495.34C1032.05 1485.49 1037.55 1478.1 1044.79 1472.89C1052.03 1467.67 1060.86 1465.07 1071.14 1465.07C1081.42 1465.07 1090.4 1467.67 1097.64 1472.89C1104.88 1478.1 1110.38 1485.49 1114.14 1495.34C1117.91 1505.19 1119.79 1516.93 1119.79 1530.69C1119.79 1544.45 1117.91 1556.04 1114.14 1565.75Z" fill="#FE5000"/>
<path d="M1384.61 1537.36C1392.43 1525.33 1396.34 1510.99 1396.34 1494.48C1396.34 1477.96 1392.58 1462.75 1385.05 1450.29C1377.52 1437.83 1366.8 1428.27 1353.05 1421.46C1339.29 1414.65 1322.79 1411.32 1303.82 1411.32H1202.76V1649.49H1269.22V1575.02H1298.9L1334.52 1649.49H1403.73L1360 1560.54C1370.13 1554.45 1378.39 1546.77 1384.61 1537.36ZM1269.22 1465.5H1298.9C1305.56 1465.5 1311.35 1466.66 1316.27 1469.12C1321.05 1471.59 1324.82 1474.92 1327.57 1479.27C1330.17 1483.61 1331.62 1488.68 1331.62 1494.48C1331.62 1500.27 1330.32 1505.34 1327.57 1509.69C1324.96 1514.03 1321.2 1517.51 1316.27 1519.97C1311.5 1522.44 1305.7 1523.59 1298.9 1523.59H1269.22V1465.36V1465.5Z" fill="#FE5000"/>
<path d="M1483.65 1411.46H1417.2V1649.63H1483.65V1411.46Z" fill="#FE5000"/>
<path d="M1499.43 1467.67H1567.2V1649.48H1633.65V1467.67H1701.42V1411.46H1499.43V1467.67Z" fill="#FE5000"/>
<path d="M1874.42 1411.46L1842.28 1478.25C1839.67 1483.75 1837.06 1489.26 1834.75 1494.91C1833.88 1496.94 1833.01 1498.97 1832.14 1500.99C1831.13 1498.97 1830.26 1496.94 1829.25 1494.91C1826.64 1489.4 1823.89 1483.75 1821.14 1478.25L1786.97 1411.46H1710.95L1799.56 1568.36V1649.48H1863.85V1568.36L1950 1411.46H1874.42Z" fill="#FE5000"/>
</g>
<defs>
<filter id="filter0_ddd_77_954" x="-8" y="-5" width="2416" height="2416" filterUnits="userSpaceOnUse" color-interpolation-filters="sRGB">
<feFlood flood-opacity="0" result="BackgroundImageFix"/>
<feColorMatrix in="SourceAlpha" type="matrix" values="0 0 0 0 0 0 0 0 0 0 0 0 0 0 0 0 0 0 127 0" result="hardAlpha"/>
<feOffset/>
<feGaussianBlur stdDeviation="0.25"/>
<feColorMatrix type="matrix" values="0 0 0 0 0 0 0 0 0 0 0 0 0 0 0 0 0 0 0.18 0"/>
<feBlend mode="normal" in2="BackgroundImageFix" result="effect1_dropShadow_77_954"/>
<feColorMatrix in="SourceAlpha" type="matrix" values="0 0 0 0 0 0 0 0 0 0 0 0 0 0 0 0 0 0 127 0" result="hardAlpha"/>
<feOffset dy="3"/>
<feGaussianBlur stdDeviation="4"/>
<feColorMatrix type="matrix" values="0 0 0 0 0 0 0 0 0 0 0 0 0 0 0 0 0 0 0.1 0"/>
<feBlend mode="normal" in2="effect1_dropShadow_77_954" result="effect2_dropShadow_77_954"/>
<feColorMatrix in="SourceAlpha" type="matrix" values="0 0 0 0 0 0 0 0 0 0 0 0 0 0 0 0 0 0 127 0" result="hardAlpha"/>
<feOffset dx="1" dy="3"/>
<feGaussianBlur stdDeviation="1.5"/>
<feColorMatrix type="matrix" values="0 0 0 0 0 0 0 0 0 0 0 0 0 0 0 0 0 0 0.1 0"/>
<feBlend mode="normal" in2="effect2_dropShadow_77_954" result="effect3_dropShadow_77_954"/>
<feBlend mode="normal" in="SourceGraphic" in2="effect3_dropShadow_77_954" result="shape"/>
</filter>
</defs>
</svg>
