<svg width="2400" height="2400" viewBox="0 0 2400 2400" fill="none" xmlns="http://www.w3.org/2000/svg">
<g filter="url(#filter0_ddd_77_845)">
<path d="M527.896 1758.72H499.518V1835.5H478.378V1758.72H450V1740.61H527.896V1758.72ZM710.034 1835.5H686.434L680.353 1816.08H645.893L639.521 1835.5H616.5L649.367 1740.61H677.022L710.034 1835.5ZM1235.49 1758.72H1187.42V1778.85H1231.87V1796.53H1187.42V1817.39H1235.49V1835.5H1166.14V1740.61H1235.49V1758.72ZM1357.97 1817.39H1400.54V1835.5H1336.68V1740.61H1357.97V1817.39ZM1521.72 1835.5H1500.44V1740.61H1521.72V1835.5ZM1694.75 1758.72H1646.69V1778.85H1691.14V1796.53H1646.69V1817.39H1694.75V1835.5H1625.4V1740.61H1694.75V1758.72ZM1863.14 1758.72H1817.24V1780.59H1860.25V1797.98H1817.24V1835.5H1795.96V1740.61H1863.14V1758.72ZM1029.15 1740.46C1036.25 1740.46 1042.62 1741.76 1047.83 1744.37C1053.04 1746.98 1057.1 1750.6 1059.99 1755.38C1062.74 1760.16 1064.19 1765.81 1064.19 1772.19C1064.19 1778.56 1062.74 1784.06 1059.7 1788.7L1059.99 1788.41C1057.1 1792.9 1053.19 1796.23 1048.12 1798.7L1066.8 1835.35H1044.21L1027.99 1803.04H1011.92V1835.35H990.639V1740.46H1029.15ZM838.751 1755.53C840.054 1757.7 841.212 1759.73 842.66 1761.9C844.108 1764.07 845.266 1766.25 846.569 1768.28C846.859 1768.85 847.149 1769.29 847.438 1769.87C847.873 1769.29 848.162 1768.85 848.451 1768.28C849.754 1766.25 851.058 1764.07 852.361 1762.05C853.664 1760.02 855.112 1757.85 856.415 1755.82L866.405 1740.61H889.669L859.455 1786.09L892.901 1835.21H868.288L855.691 1816.08C854.533 1814.34 853.52 1812.61 852.361 1810.87C851.203 1809.13 850.044 1807.54 849.03 1805.8C848.451 1804.78 847.872 1803.91 847.293 1803.04C846.714 1803.91 846.135 1804.93 845.556 1805.8C844.542 1807.39 843.384 1809.13 842.226 1810.87C841.067 1812.61 839.909 1814.34 838.751 1816.08L825.72 1835.21H801.685L835.71 1786.67L804.87 1740.32H828.905L838.751 1755.53ZM663.268 1759.59C662.109 1763.79 660.95 1767.84 659.792 1771.61C657.765 1778.27 655.738 1784.94 653.711 1791.46L651.25 1799.13H674.995L672.534 1791.46C670.507 1784.94 668.625 1778.42 666.598 1771.61C665.584 1767.84 664.426 1763.79 663.268 1759.59ZM1011.92 1786.09H1027.71C1030.89 1786.09 1033.79 1785.51 1036.1 1784.35C1038.42 1783.2 1040.3 1781.6 1041.6 1779.43C1042.91 1777.4 1043.49 1774.94 1043.49 1772.04C1043.49 1769.14 1042.91 1766.68 1041.6 1764.65C1040.3 1762.62 1038.56 1761.03 1036.1 1759.87C1033.64 1758.71 1030.89 1758.13 1027.56 1758.13H1011.92V1786.09ZM889.717 1740.61H889.669L889.861 1740.32L889.717 1740.61ZM1071.29 1407.7C1092.86 1407.7 1112.41 1412.48 1129.93 1421.89C1147.3 1431.31 1161.2 1445.22 1171.48 1463.47C1181.75 1481.71 1186.82 1504.14 1186.83 1530.62C1186.82 1557.1 1181.75 1579.38 1171.48 1597.62C1161.2 1615.87 1147.45 1629.78 1129.93 1639.2C1112.41 1648.61 1092.86 1653.39 1071.29 1653.39C1049.71 1653.39 1030.17 1648.61 1012.65 1639.2C995.128 1629.78 981.373 1615.87 971.093 1597.62C960.813 1579.37 955.745 1557.2 955.745 1530.69C955.745 1504.18 960.813 1481.87 971.093 1463.47C981.228 1445.22 995.128 1431.31 1012.65 1421.89C1030.17 1412.48 1049.71 1407.7 1071.29 1407.7ZM551.207 1411.46C570.174 1411.46 586.681 1414.8 600.436 1421.61C614.19 1428.41 624.905 1437.98 632.434 1450.43C639.963 1462.89 643.728 1477.81 643.728 1494.62C643.728 1511.42 639.963 1526.2 632.434 1538.66L632.289 1538.8C624.76 1551.26 614.191 1560.82 600.291 1567.63C586.391 1574.44 570.03 1577.77 551.062 1577.77H516.458V1649.63H450V1411.46H551.207ZM939.679 1649.63H873.221V1411.46H939.679V1649.63ZM1483.65 1649.63H1417.2V1411.46H1483.65V1649.63ZM759.848 1411.32C778.815 1411.32 795.321 1414.65 809.076 1421.46C822.831 1428.27 833.545 1437.83 841.074 1450.29C848.603 1462.75 852.367 1477.96 852.367 1494.48C852.367 1510.99 848.458 1525.33 840.64 1537.36C834.414 1546.77 826.161 1554.45 816.025 1560.54L859.752 1649.49H790.543L754.925 1575.02H725.243V1649.49H658.785V1411.32H759.848ZM1303.82 1411.32C1322.79 1411.32 1339.29 1414.65 1353.05 1421.46C1366.8 1428.27 1377.52 1437.83 1385.05 1450.29C1392.58 1462.75 1396.34 1477.96 1396.34 1494.48C1396.34 1510.99 1392.43 1525.33 1384.61 1537.36C1378.39 1546.77 1370.13 1554.45 1360 1560.54L1403.73 1649.49H1334.52L1298.9 1575.02H1269.22V1649.49H1202.76V1411.32H1303.82ZM1701.42 1467.67H1633.65V1649.48H1567.2V1467.67H1499.43V1411.46H1701.42V1467.67ZM1786.97 1411.46L1821.14 1478.25C1823.89 1483.75 1826.64 1489.4 1829.25 1494.91C1830.26 1496.94 1831.13 1498.97 1832.14 1500.99C1833.01 1498.97 1833.88 1496.94 1834.75 1494.91C1837.06 1489.26 1839.67 1483.75 1842.28 1478.25L1874.42 1411.46H1950L1863.85 1568.36V1649.48H1799.56V1568.36L1710.95 1411.46H1786.97ZM1071.14 1465.07C1060.86 1465.07 1052.03 1467.67 1044.79 1472.89C1037.55 1478.1 1032.05 1485.49 1028.28 1495.34C1024.52 1505.19 1022.64 1517.07 1022.64 1530.69C1022.64 1544.31 1024.52 1556.04 1028.28 1565.75C1032.05 1575.45 1037.55 1582.84 1044.79 1588.06C1052.03 1593.27 1060.72 1595.88 1071.14 1595.88C1081.57 1595.88 1090.4 1593.27 1097.64 1588.06C1104.88 1582.99 1110.38 1575.45 1114.14 1565.75C1117.91 1556.04 1119.79 1544.45 1119.79 1530.69C1119.79 1516.93 1117.91 1505.19 1114.14 1495.34C1110.38 1485.49 1104.88 1478.1 1097.64 1472.89C1090.4 1467.67 1081.42 1465.07 1071.14 1465.07ZM1186.83 1530.69C1186.83 1530.67 1186.83 1530.64 1186.83 1530.62C1186.83 1530.59 1186.83 1530.57 1186.83 1530.54V1530.69ZM725.243 1523.59H754.925C761.73 1523.59 767.521 1522.44 772.299 1519.97C777.222 1517.51 780.842 1514.03 783.593 1509.69C786.344 1505.34 787.646 1500.27 787.646 1494.48C787.646 1488.68 786.199 1483.61 783.593 1479.26C780.842 1474.92 777.077 1471.59 772.299 1469.12C767.376 1466.66 761.585 1465.5 754.925 1465.5H725.243V1523.59ZM1269.22 1523.59H1298.9C1305.7 1523.59 1311.49 1522.44 1316.27 1519.97C1321.2 1517.51 1324.96 1514.03 1327.57 1509.69C1330.32 1505.34 1331.62 1500.27 1331.62 1494.48C1331.62 1488.68 1330.17 1483.61 1327.57 1479.26C1324.82 1474.92 1321.05 1471.59 1316.27 1469.12C1311.35 1466.66 1305.56 1465.5 1298.9 1465.5H1269.22V1523.59ZM516.458 1522.87H546.14C552.945 1522.87 558.736 1521.71 563.514 1519.39C568.436 1517.07 572.201 1513.74 574.808 1509.54V1509.4C577.558 1505.05 578.861 1500.12 578.861 1494.33C578.861 1488.54 577.414 1483.46 574.808 1479.26C572.057 1475.06 568.292 1471.73 563.514 1469.41C558.591 1467.09 552.8 1465.94 546.14 1465.94H516.458V1522.87ZM1311.79 1002.07L1317.58 1007.87L1354.35 1044.66L1370.14 1060.45C1404.6 1094.79 1409.95 1148.68 1383.02 1189.24V1189.09L1344.65 1150.71C1321.05 1127.09 1283.12 1125.79 1257.78 1147.66L1072.88 1315.28L1102.28 1220.97C1119.51 1165.19 1104.59 1104.49 1063.33 1063.2L1057.39 1057.26C1042.33 1042.2 1030.89 1023.8 1024.09 1003.52C1016.71 981.933 1006.43 951.511 994.553 916.453L1175.97 1097.97L1198.27 1082.33L989.92 873.862C980.074 864.011 972.69 852.132 968.201 838.949C957.197 806.644 945.904 773.179 935.045 741.163L1244.02 1050.31L1266.32 1034.67L923.172 691.328L923.316 691.184C918.249 686.258 914.485 680.028 912.168 673.364C894.649 621.936 880.893 581.228 875.681 565.728L1311.79 1002.07ZM1524.48 565C1524.48 565 1371.58 1016.55 1369.55 1022.35L1218.39 871.106L1524.48 565Z" fill="black"/>
</g>
<defs>
<filter id="filter0_ddd_77_845" x="-8" y="-5" width="2416" height="2416" filterUnits="userSpaceOnUse" color-interpolation-filters="sRGB">
<feFlood flood-opacity="0" result="BackgroundImageFix"/>
<feColorMatrix in="SourceAlpha" type="matrix" values="0 0 0 0 0 0 0 0 0 0 0 0 0 0 0 0 0 0 127 0" result="hardAlpha"/>
<feOffset/>
<feGaussianBlur stdDeviation="0.25"/>
<feColorMatrix type="matrix" values="0 0 0 0 0 0 0 0 0 0 0 0 0 0 0 0 0 0 0.18 0"/>
<feBlend mode="normal" in2="BackgroundImageFix" result="effect1_dropShadow_77_845"/>
<feColorMatrix in="SourceAlpha" type="matrix" values="0 0 0 0 0 0 0 0 0 0 0 0 0 0 0 0 0 0 127 0" result="hardAlpha"/>
<feOffset dy="3"/>
<feGaussianBlur stdDeviation="4"/>
<feColorMatrix type="matrix" values="0 0 0 0 0 0 0 0 0 0 0 0 0 0 0 0 0 0 0.1 0"/>
<feBlend mode="normal" in2="effect1_dropShadow_77_845" result="effect2_dropShadow_77_845"/>
<feColorMatrix in="SourceAlpha" type="matrix" values="0 0 0 0 0 0 0 0 0 0 0 0 0 0 0 0 0 0 127 0" result="hardAlpha"/>
<feOffset dx="1" dy="3"/>
<feGaussianBlur stdDeviation="1.5"/>
<feColorMatrix type="matrix" values="0 0 0 0 0 0 0 0 0 0 0 0 0 0 0 0 0 0 0.1 0"/>
<feBlend mode="normal" in2="effect2_dropShadow_77_845" result="effect3_dropShadow_77_845"/>
<feBlend mode="normal" in="SourceGraphic" in2="effect3_dropShadow_77_845" result="shape"/>
</filter>
</defs>
</svg>
