<?xml version="1.0" encoding="iso-8859-1"?>
<!-- Generator: Adobe Illustrator 29.6.0, SVG Export Plug-In . SVG Version: 9.03 Build 0)  -->
<svg version="1.2" baseProfile="tiny-ps" xmlns="http://www.w3.org/2000/svg" xmlns:xlink="http://www.w3.org/1999/xlink" viewBox="0 0 96 96" overflow="visible" xml:space="preserve">
<title>Priority Tax Relief</title>
<rect x="0" fill="#FFFFFF" width="96" height="96"/>
<path fill="#FE5000" d="M49.8075562,41.1999588L80.0148315,11c0,0-15.0894089,44.5286102-15.2894592,45.1000252
	L49.8075562,41.185688V41.1999588z"/>
<path fill="#FE5000" d="M54.5372467,57.2999458L20.6720486,23.4570637
	c-0.5001659-0.4999809-0.8717175-1.0999374-1.1003056-1.7571564c-1.714716-5.0856934-3.0721436-9.0999889-3.5865765-10.6285601
	l43.0674515,43.057209l0.5716019,0.5714188l3.6294785,3.6285629l1.557476,1.5571098
	c3.400795,3.3999748,3.9294968,8.714344,1.2717209,12.7000084c0,0,0,0,0-0.0142746l-3.7866211-3.7857056
	c-2.3433952-2.3428421-6.0871239-2.4714508-8.5734825-0.3000259L35.4755211,85.0146408l2.9007301-9.3004074
	c1.7147102-5.4999619,0.2286758-11.485733-3.8437958-15.557106l-0.5858688-0.5857773
	c-1.4860382-1.485672-2.6148815-3.2999954-3.286459-5.3000107c-0.7144794-2.1285286-1.7432556-5.1284981-2.9149971-8.5856476
	l17.9043369,17.8999519l2.2005196-1.5428429L27.2878666,41.4856186c-0.9716053-0.9714203-1.7003536-2.1427956-2.1433468-3.4427795
	c-1.0859451-3.2000198-2.2005177-6.5000172-3.272192-9.6571388l30.4930325,30.485714l2.2005157-1.5429344L54.5372467,57.2999458z"/>
</svg>
